<?xml version="1.0" encoding="UTF-8"?>
<svg width="350px" height="195px" viewBox="0 0 350 195" version="1.1" xmlns="http://www.w3.org/2000/svg" xmlns:xlink="http://www.w3.org/1999/xlink">
    <title>Big Logo</title>
    <g id="Latest" stroke="none" stroke-width="1" fill="none" fill-rule="evenodd">
        <g id="Home-3" transform="translate(-545.000000, -172.000000)" fill-rule="nonzero">
            <g id="Group-2" transform="translate(0.000000, -62.000000)">
                <g id="Group" transform="translate(545.000000, 234.000000)">
                    <path d="M71.0713787,47.1971561 L86.4157941,47.1971561 L86.4157941,47.7575501 C85.617452,47.6762716 82.1009599,47.5962153 82.1009599,50.7941892 C82.0178883,51.2733047 82.0178883,53.3517127 82.0178883,53.7507719 L82.0178883,97.8837887 C82.0178883,102.440275 82.0178883,104.201513 86.4157941,104.119624 L86.4157941,104.680018 L71.0713787,104.680018 L71.0713787,104.119624 C75.2267888,103.961345 75.389267,102.920613 75.389267,97.963845 L75.389267,54.2298874 C75.389267,49.992404 75.389267,47.5167701 71.0713787,47.7575501 L71.0713787,47.1971561 Z" id="Path" fill="#000000"></path>
                    <path d="M92.2491274,104.120235 C95.9256545,103.961956 96.4045375,103.081337 96.4045375,98.6855739 L96.4045375,52.9526535 C96.4045375,48.1566094 94.9678883,47.8357731 92.2491274,47.7575501 L92.2491274,47.1971561 L108.550698,47.1971561 C114.783508,47.1971561 117.499215,47.1971561 120.777487,48.2348323 C125.653665,49.756513 129.087696,53.5931038 129.087696,59.9083841 C129.087696,66.6233347 124.211518,72.1392743 119.02199,74.9394111 L123.413176,81.7356403 C124.211518,83.1723757 131.005672,93.0865224 135.47993,98.2034028 C136.683246,99.6450271 140.356108,102.839334 144.990401,102.839334 C147.067801,102.839334 148.028621,102.440275 148.90637,102.040605 C150.186038,101.483266 151.143194,100.841594 151.625131,100.603869 L151.864572,101.401988 C150.186038,102.681055 149.065794,103.319672 147.467277,103.961345 C146.028185,104.520516 143.072426,105.240412 139.715358,105.240412 C136.683246,105.240412 132.445375,104.520516 128.45,99.6450271 C124.135166,94.3655897 118.859511,86.5329066 118.697033,86.2915155 C118.697033,86.1332363 118.540052,85.9725126 118.540052,85.8924563 L112.786126,77.0178191 L110.628709,77.0990977 C110.149825,77.1773206 108.069372,77.1773206 107.670506,77.1773206 L103.039267,77.1773206 L103.039267,99.1640783 C103.039267,103.720565 104.395899,104.041401 107.11466,104.119624 L107.11466,104.680018 L92.2491274,104.680018 L92.2491274,104.120235 L92.2491274,104.120235 Z M103.039267,48.7952263 L103.039267,75.5780281 L109.029581,75.5780281 C111.110646,75.5780281 115.265445,75.0976904 117.180366,74.0600142 C119.979145,72.5383335 123.014311,69.1026353 123.014311,63.5072505 C123.014311,59.9083841 121.737696,55.5107881 118.62007,52.3140365 C116.303229,49.9930151 113.267452,48.7952263 107.752967,48.7952263 L103.039267,48.7952263 L103.039267,48.7952263 Z" id="Shape" fill="#000000"></path>
                    <path d="M194.065532,104.120235 L194.065532,104.680629 L170.892234,104.680629 C166.656806,104.680629 159.626265,104.680629 152.193805,100.044697 C143.245288,94.4487016 137.251309,85.173783 137.251309,75.42036 C137.251309,62.546575 148.916143,46.3177591 169.775044,46.3177591 C176.007853,46.3177591 181.762391,47.6762716 187.676353,50.0755159 L190.073211,56.709188 L189.511257,56.709188 C185.518935,51.6723639 178.165881,47.8357731 169.695637,47.8357731 C153.394066,47.8357731 144.441885,62.0668484 144.441885,77.0178191 C144.441885,90.8480018 152.03438,97.2439495 156.030366,99.4836923 C162.263176,103.000669 171.052269,103.163837 172.331937,103.163837 L175.449564,103.080725 C181.921815,102.920613 183.28089,102.681666 183.28089,98.1233465 L183.28089,89.409433 C183.28089,85.7298992 181.519284,85.1725608 179.205497,85.2520059 L179.205497,84.6916119 L194.064921,84.6916119 L194.064921,85.2520059 C190.152007,85.3302289 189.909511,87.0914673 189.909511,89.9667715 L189.909511,99.0045768 C189.909511,102.521554 190.63089,104.119624 193.266579,104.119624 L194.065532,104.119624 L194.065532,104.120235 Z" id="Path" fill="#000000"></path>
                    <path d="M198.147033,47.1971561 L213.491449,47.1971561 L213.491449,47.7575501 C212.693717,47.6762716 209.177225,47.5962153 209.177225,50.7941892 C209.097208,51.2733047 209.097208,53.3517127 209.097208,53.7507719 L209.097208,97.8837887 C209.097208,102.440275 209.097208,104.201513 213.491449,104.119624 L213.491449,104.680018 L198.147033,104.680018 L198.147033,104.119624 C202.306108,103.961345 202.461867,102.920613 202.461867,97.963845 L202.461867,54.2298874 C202.461867,49.992404 202.461867,47.5167701 198.147033,47.7575501 L198.147033,47.1971561 L198.147033,47.1971561 Z" id="Path" fill="#000000"></path>
                    <path d="M264.904799,47.1971561 L276.011344,47.1971561 L276.011344,47.7575501 C272.816754,47.8357731 271.536475,48.6345026 271.536475,53.0327097 L271.536475,105.399302 L225.666318,56.5515199 L225.666318,99.0852442 C225.666318,103.641731 226.706545,103.801232 229.824782,104.120235 L229.824782,104.680629 L218.79459,104.680629 L218.79459,104.120235 C223.192496,103.961956 223.192496,102.681666 223.192496,98.0457347 L223.192496,59.1102656 C223.192496,55.1923963 223.192496,47.4354916 215.19808,47.7575501 L215.19808,47.1971561 L225.985166,47.1971561 L269.060209,93.0865224 L269.060209,52.4717046 C269.060209,48.2342212 267.381065,47.756939 264.904799,47.756939 L264.904799,47.1971561 Z" id="Path" fill="#000000"></path>
                    <path d="M279.877225,47.1971561 L295.22164,47.1971561 L295.22164,47.7575501 C294.423298,47.6762716 290.906806,47.5962153 290.906806,50.7941892 C290.8274,51.2733047 290.8274,53.3517127 290.8274,53.7507719 L290.8274,97.8837887 C290.8274,102.440275 290.8274,104.201513 295.22164,104.119624 L295.22164,104.680018 L279.877225,104.680018 L279.877225,104.119624 C284.035689,103.961345 284.195113,102.920613 284.195113,97.963845 L284.195113,54.2298874 C284.195113,49.992404 284.195113,47.5167701 279.877225,47.7575501 L279.877225,47.1971561 Z" id="Path" fill="#000000"></path>
                    <path d="M328.20288,78.2174413 L311.421815,78.2174413 L302.712129,99.9646412 C302.549651,100.3637 302.310209,100.924094 302.310209,101.00354 C301.911955,101.882937 301.831937,102.282607 301.831937,102.839945 C301.831937,104.202125 303.111606,104.120235 303.749913,104.120235 L303.749913,104.680629 L295.197208,104.680629 L295.197208,104.120235 C298.634293,104.042012 299.514485,101.722213 300.631675,98.926965 L321.488133,46.3177591 L322.448342,46.3177591 L342.98534,97.1663377 C342.98534,97.2445606 343.065358,97.5653969 343.227836,97.8049547 L343.54363,98.686185 C344.345026,100.842816 345.784119,104.120846 349.378185,104.120846 L349.378185,104.68124 L335.954188,104.68124 L335.954188,104.120846 C337.71274,104.120846 337.789703,102.840557 337.789703,102.682277 C337.789703,101.883548 337.31082,100.523813 336.911955,99.5643597 C336.75192,99.2453568 336.592496,98.7662413 336.510035,98.686185 L328.20288,78.2174413 Z M311.981326,76.6187599 L327.485166,76.6187599 L319.730192,57.0300243 L311.981326,76.6187599 Z" id="Shape" fill="#000000"></path>
                    <path d="M54.1339442,117.221355 L61.127836,117.221355 L61.127836,117.655859 C58.1574171,117.778694 57.6015707,119.574766 57.6015707,121.369616 C57.6015707,121.928176 57.7243455,122.918186 57.7854276,123.475524 L62.425829,157.220168 C62.9230366,160.687033 63.6010471,161.121537 65.5837696,161.307316 L65.5837696,161.740598 L55.5577661,161.740598 L55.5577661,161.307316 C57.2918848,161.369039 57.5374346,160.254362 57.5374346,159.386576 C57.5374346,159.077962 57.5374346,158.892183 57.3535777,157.591726 L52.8359511,124.900037 L52.7131763,124.900037 L36.8684991,161.739987 L36.5588133,161.739987 L20.6524433,124.900037 L20.5296684,124.900037 L16.0120419,157.838618 C15.8862129,158.395956 15.8862129,159.015017 15.8862129,159.573578 C15.8862129,160.192639 15.8862129,161.306705 17.9300175,161.306705 L17.9300175,161.739987 L11.1230366,161.739987 L11.1230366,161.306705 C13.1027051,161.244982 13.6579407,161.183871 14.1551483,157.838618 L19.2280105,121.86462 L18.5463351,120.377162 C17.2483421,117.531192 15.0206806,117.655248 14.3390052,117.655248 L14.3390052,117.220744 L22.756719,117.220744 L38.4138743,153.629246 L54.1339442,117.221355 Z" id="Path" fill="#000000"></path>
                    <path d="M88.8584642,162.421993 C75.9878709,162.421993 67.8181501,152.823794 67.8181501,141.864026 C67.8181501,130.718479 75.8614311,116.53996 92.7591623,116.53996 C105.694503,116.53996 114.04808,125.519098 114.04808,136.477032 C114.047469,150.16238 105.012827,162.421993 88.8584642,162.421993 Z M88.6129145,118.893371 C80.4407504,118.893371 71.2216405,125.703656 71.2216405,136.291864 C71.2216405,148.737256 81.4351658,160.068583 92.5716405,160.068583 C102.10349,160.068583 111.264572,152.081287 111.264572,141.926971 C111.263962,127.499728 97.3989529,118.893371 88.6129145,118.893371 Z" id="Shape" fill="#000000"></path>
                    <path d="M151.555497,154.867368 C145.368499,161.803543 138.932897,162.050434 136.208028,162.050434 C128.781065,162.050434 121.848255,158.088564 121.848255,148.055861 L121.848255,121.370227 C121.848255,118.33481 121.538569,117.593525 118.571204,117.65647 L118.571204,117.221966 L130.389354,117.221966 L130.389354,117.65647 C128.658901,117.65647 126.986475,117.65647 126.986475,121.05978 L126.986475,145.517893 C126.986475,147.498523 127.111693,150.286437 128.038918,152.576903 C130.328272,158.212621 135.281414,159.697024 138.745986,159.697024 C145.988482,159.697024 150.073647,154.990203 151.556108,153.258298 L151.556108,123.102743 C151.556108,119.015594 151.245812,117.655859 148.710908,117.655859 L148.278447,117.655859 L148.278447,117.221355 L159.973822,117.221355 L159.973822,117.655859 C158.116928,117.715749 156.693106,117.715749 156.693106,120.687609 L156.693106,156.972054 C156.693106,159.759969 156.693106,161.368428 159.973822,161.307316 L159.973822,161.740598 L151.556108,161.740598 L151.556108,154.867368 L151.555497,154.867368 Z" id="Path" fill="#000000"></path>
                    <path d="M201.443019,117.221355 L210.045201,117.221355 L210.045201,117.655859 C207.571379,117.715749 206.580017,118.334199 206.580017,121.741175 L206.580017,162.297325 L171.054712,124.466144 L171.054712,157.406558 C171.054712,160.933924 171.862216,161.060425 174.276789,161.307316 L174.276789,161.740598 L165.733857,161.740598 L165.733857,161.307316 C169.136736,161.184482 169.136736,160.19325 169.136736,156.602329 L169.136736,126.447996 C169.136736,123.412579 169.136736,117.405913 162.946684,117.655859 L162.946684,117.221355 L171.303316,117.221355 L204.662042,152.762071 L204.662042,121.306671 C204.662042,118.026196 203.360995,117.655859 201.442408,117.655859 L201.442408,117.221355 L201.443019,117.221355 Z" id="Path" fill="#000000"></path>
                    <path d="M249.597033,115.674008 L247.49459,121.059168 L247.059075,121.059168 C247.246597,120.440107 247.184904,120.130271 247.184904,119.758712 C247.184904,118.582923 245.944939,118.705147 245.080017,118.705147 L233.445724,118.705147 L233.445724,156.786886 C233.445724,160.314252 233.752356,161.367817 236.971379,161.306705 L236.971379,161.739987 L224.904625,161.739987 L224.904625,161.306705 C227.688133,161.059814 228.307504,160.749367 228.307504,157.405947 L228.307504,118.705147 L217.167976,118.705147 C215.188307,118.705147 214.44555,118.644035 214.44555,119.821657 C214.44555,120.130271 214.507243,120.377162 214.691099,121.058557 L214.258639,121.058557 L212.153141,115.673397 L212.586213,115.673397 C212.960035,116.414681 213.32897,116.849185 213.764485,117.033743 C214.25925,117.221355 214.940314,117.221355 215.92801,117.221355 L245.512478,117.221355 C247.307679,117.221355 248.547644,117.34419 249.164572,115.674008 L249.597033,115.674008 Z" id="Path" fill="#000000"></path>
                    <path d="M268.758464,141.245576 L255.762042,141.245576 L249.016754,158.088564 C248.893979,158.397178 248.707068,158.831682 248.707068,158.892794 C248.399825,159.574189 248.335689,159.884636 248.335689,160.315474 C248.335689,161.369039 249.327051,161.307316 249.821204,161.307316 L249.821204,161.740598 L243.201745,161.740598 L243.201745,161.307316 C245.859424,161.245593 246.544154,159.450132 247.409075,157.283724 L263.560384,116.53996 L264.303141,116.53996 L280.209511,155.920322 C280.209511,155.982045 280.271204,156.230158 280.397033,156.414716 L280.641972,157.096111 C281.261955,158.767515 282.376091,161.307316 285.159599,161.307316 L285.159599,161.740598 L274.762827,161.740598 L274.762827,161.307316 C276.124956,161.307316 276.186649,160.315474 276.186649,160.19325 C276.186649,159.574189 275.815271,158.521235 275.508639,157.778117 C275.38281,157.531226 275.260035,157.159667 275.198342,157.096722 L268.758464,141.245576 Z M256.195113,140.006843 L268.203229,140.006843 L262.200698,124.838314 L256.195113,140.006843 Z" id="Shape" fill="#000000"></path>
                    <path d="M287.577225,117.221355 L299.460122,117.221355 L299.460122,117.655859 C298.84014,117.592914 296.117714,117.531803 296.117714,120.006214 C296.056021,120.377773 296.056021,121.988066 296.056021,122.298513 L296.056021,156.477661 C296.056021,160.00686 296.056021,161.369039 299.459511,161.307316 L299.459511,161.740598 L287.576614,161.740598 L287.576614,161.307316 C290.796248,161.184482 290.919023,160.378419 290.919023,156.540606 L290.919023,122.669461 C290.919023,119.387764 290.919023,117.468247 287.576614,117.655859 L287.576614,117.221355 L287.577225,117.221355 Z" id="Path" fill="#000000"></path>
                    <path d="M340.494415,117.221355 L349.095986,117.221355 L349.095986,117.655859 C346.61911,117.715749 345.631414,118.334199 345.631414,121.741175 L345.631414,162.297325 L310.106108,124.466144 L310.106108,157.406558 C310.106108,160.933924 310.909948,161.060425 313.325742,161.307316 L313.325742,161.740598 L304.785253,161.740598 L304.785253,161.307316 C308.188133,161.184482 308.188133,160.19325 308.188133,156.602329 L308.188133,126.447996 C308.188133,123.412579 308.188133,117.405913 301.998691,117.655859 L301.998691,117.221355 L310.355323,117.221355 L343.713438,152.762071 L343.713438,121.306671 C343.713438,118.026196 342.412391,117.655859 340.494415,117.655859 L340.494415,117.221355 Z" id="Path" fill="#000000"></path>
                    <polygon id="Path" fill="#FFFFFF" points="61.9011344 50.0810159 61.9011344 50.0785715"></polygon>
                    <g transform="translate(11.605585, 172.946034)" fill="#000000">
                        <path d="M10.0162304,21.5809762 L9.76335079,21.5809762 L2.55139616,3.66425591 C1.64921466,1.39945731 1.08603839,1.11589915 0.268150087,1.11589915 L0.268150087,0.917897327 L4.9452007,0.917897327 L4.9452007,1.11589915 C4.55061082,1.08778778 4.32521815,1.20206661 4.32521815,1.59745913 C4.32521815,1.85229481 4.46631763,2.24829845 4.6074171,2.53063437 L10.6930192,17.7303297 L16.7499127,2.55996798 C16.7499127,2.53063437 16.7792321,2.47563387 16.806719,2.41880001 C16.8635253,2.24890956 17.0602094,1.76857181 17.0602094,1.54062527 C17.0602094,1.42695756 17.0034031,1.06028752 16.3284468,1.11589915 L16.3284468,0.917897327 L19.3709424,0.917897327 L19.3709424,1.11589915 C18.3288831,1.11589915 18.0466841,1.71173796 17.7076789,2.39007753 L17.595288,2.58746823 L10.0162304,21.5809762 Z" id="Path"></path>
                        <path d="M42.9962478,0.917897327 L48.4050611,0.917897327 L48.4050611,1.11589915 C48.1228621,1.08778778 46.882897,1.06028752 46.882897,2.19207571 C46.8554101,2.36196616 46.8554101,3.09713958 46.8554101,3.23891866 L46.8554101,18.8639512 C46.8554101,20.4772994 46.8554101,21.0988051 48.4050611,21.0713048 L48.4050611,21.2693066 L42.9962478,21.2693066 L42.9962478,21.0713048 C44.4616056,21.014471 44.5153578,20.6459676 44.5153578,18.8914514 L44.5153578,3.40942023 C44.5153578,1.90912866 44.5153578,1.03095392 42.9962478,1.11589915 L42.9962478,0.917897327 L42.9962478,0.917897327 Z" id="Path"></path>
                        <path d="M89.6109948,0.917897327 L93.528185,0.917897327 L93.528185,1.11589915 C92.4018325,1.14462163 91.9492147,1.42756868 91.9492147,2.98408299 L91.9492147,21.5247534 L75.7777487,4.23076112 L75.7777487,19.2880662 C75.7777487,20.9014144 76.1448517,20.9582482 77.2431065,21.0719159 L77.2431065,21.2699178 L73.3564572,21.2699178 L73.3564572,21.0719159 C74.9061082,21.0150821 74.9061082,20.5622446 74.9061082,18.920785 L74.9061082,5.13643611 C74.9061082,3.74859002 74.9061082,1.00345367 72.0871728,1.11589915 L72.0871728,0.917897327 L75.8907504,0.917897327 L91.0769634,17.1662689 L91.0769634,2.78608117 C91.0769634,1.28640071 90.4844677,1.11651026 89.6103839,1.11651026 L89.6103839,0.917897327 L89.6109948,0.917897327 Z" id="Path"></path>
                        <path d="M119.546684,3.18208481 C119.546684,1.68240436 119.491099,1.14462163 118.110035,1.14462163 L118.110035,0.917897327 L130.844415,0.917897327 L130.844415,3.72108976 L130.648342,3.72108976 C130.055846,1.59745913 130.055846,1.59745913 128.561169,1.59745913 L121.886126,1.59745913 L121.886126,10.7397654 L128.083508,10.7397654 C128.870855,10.7397654 129.435864,10.7397654 129.520157,10.0614258 L129.71623,10.0614258 L129.71623,11.9846102 L129.520157,11.9846102 C129.379668,11.3062706 128.900175,11.3062706 128.252705,11.3062706 L121.886126,11.3062706 L121.886126,17.5897728 C121.886126,20.4772994 122.618499,20.5909671 124.702007,20.5909671 L128.280192,20.5909671 C130.730803,20.5909671 131.491885,20.5909671 131.774084,18.4673364 L131.970157,18.4673364 L131.970157,21.2693066 L118.110035,21.2693066 L118.110035,21.0713048 C118.898604,21.014471 119.546684,20.9863596 119.546684,19.6284582 L119.546684,3.18208481 L119.546684,3.18208481 Z" id="Path"></path>
                        <path d="M167.741623,0.917897327 L170.782897,0.917897327 L170.782897,1.11589915 C170.051134,1.14462163 169.60096,1.39945731 168.980366,2.36196616 L164.022339,9.89031314 L164.022339,19.2306212 C164.022339,20.7889689 164.275829,21.0419712 165.57199,21.0713048 L165.57199,21.2693066 L160.161955,21.2693066 L160.161955,21.0713048 C160.697644,21.0988051 161.711606,21.1281387 161.711606,19.7121812 L161.684119,19.2599548 L161.684119,10.6548202 L156.726091,2.39007753 C156.528796,2.05029663 155.96562,1.08778778 154.979145,1.11589915 L154.979145,0.917897327 L159.767976,0.917897327 L159.767976,1.11589915 C159.542583,1.11589915 159.093019,1.14462163 159.093019,1.6255705 C159.093019,1.85229481 159.401483,2.36196616 159.430803,2.44691138 L163.515969,9.21197357 L168.053141,2.33263255 C168.136213,2.19207571 168.419023,1.8229612 168.419023,1.56995888 C168.419023,1.11589915 167.967627,1.11589915 167.826527,1.11589915 L167.743455,1.11589915 L167.743455,0.917897327 L167.741623,0.917897327 Z" id="Path"></path>
                        <path d="M203.144154,11.9008872 L197.227138,11.9008872 L194.156545,19.5997357 C194.099738,19.7409037 194.016056,19.9395166 194.016056,19.9682391 C193.874956,20.2805198 193.845637,20.4210766 193.845637,20.6190784 C193.845637,21.0994162 194.298255,21.0719159 194.523647,21.0719159 L194.523647,21.2699178 L191.508028,21.2699178 L191.508028,21.0719159 C192.718674,21.0425823 193.030192,20.2224637 193.424782,19.2312323 L200.777836,0.607450029 L201.11562,0.607450029 L208.356283,18.6091155 C208.356283,18.6366158 208.38377,18.7502835 208.441187,18.8346176 L208.552967,19.1462871 C208.835777,19.9107941 209.342147,21.0713048 210.61082,21.0713048 L210.61082,21.2693066 L205.876963,21.2693066 L205.876963,21.0713048 C206.496946,21.0713048 206.525044,20.6184673 206.525044,20.5616335 C206.525044,20.2792975 206.356457,19.7971264 206.216579,19.4573455 C206.159162,19.3436778 206.102356,19.1750096 206.073647,19.145676 L203.144154,11.9008872 Z M197.425044,11.3337709 L202.890663,11.3337709 L200.156021,4.39942933 L197.425044,11.3337709 Z" id="Shape"></path>
                        <path d="M234.376003,21.0713048 C235.670942,21.014471 235.841361,20.7028014 235.841361,19.1462871 L235.841361,2.95658274 C235.841361,1.25890046 235.333159,1.14462163 234.376003,1.11589915 L234.376003,0.917897327 L240.1226,0.917897327 C242.319721,0.917897327 243.278709,0.917897327 244.43438,1.28640071 C246.152618,1.82357232 247.365096,3.18269592 247.365096,5.41938315 C247.365096,7.79784946 245.645637,9.75036741 243.815009,10.7403765 L245.36466,13.1463431 C245.645637,13.6560144 248.040663,17.16688 249.618412,18.97823 C250.039878,19.4866791 251.336649,20.6196896 252.970593,20.6196896 C253.702356,20.6196896 254.04014,20.4785216 254.351658,20.3373536 C254.801222,20.1375185 255.139005,19.9120164 255.308813,19.8276823 L255.393717,20.1100182 C254.801222,20.5628557 254.407243,20.7901911 253.844066,21.0156932 C253.335864,21.213695 252.294415,21.4685307 251.110646,21.4685307 C250.039878,21.4685307 248.547033,21.213695 247.138482,19.4866791 C245.617539,17.6197175 243.758202,14.8452476 243.702618,14.7596912 C243.702618,14.7028574 243.645812,14.6478569 243.645812,14.6191344 L241.616056,11.4779944 L240.856195,11.5054947 C240.687609,11.5348283 239.955236,11.5348283 239.812914,11.5348283 L238.180192,11.5348283 L238.180192,19.3180109 C238.180192,20.9313591 238.659075,21.0431934 239.616841,21.0725271 L239.616841,21.2705289 L234.376614,21.2705289 L234.376614,21.0713048 L234.376003,21.0713048 Z M238.180192,1.48440253 L238.180192,10.9677119 L240.293019,10.9677119 C241.024782,10.9677119 242.49075,10.7972104 243.166928,10.428707 C244.152182,9.89092426 245.221728,8.67357974 245.221728,6.69356153 C245.221728,5.41938315 244.773386,3.86286884 243.673298,2.72985843 C242.857243,1.90973978 241.785864,1.48501365 239.842234,1.48501365 L238.180192,1.48501365 L238.180192,1.48440253 Z" id="Shape"></path>
                        <path d="M280.651745,3.46625409 C280.651745,1.59745913 280.596161,1.14462163 279.18822,1.11589915 L279.18822,0.917897327 L288.484293,0.917897327 C293.810035,0.917897327 295.754276,1.90912866 297.076702,2.78608117 C299.303141,4.25826137 300.99267,6.91906361 300.99267,10.4855408 C300.99267,14.873359 298.317888,18.4960589 295.55637,20.0819068 C293.951134,21.0150821 291.950087,21.2699178 288.710908,21.2699178 L279.18822,21.2699178 L279.18822,21.0719159 L279.441099,21.0719159 C280.343892,21.0719159 280.651745,20.5347443 280.651745,18.2980571 L280.651745,3.46625409 Z M282.989965,17.1369353 C282.989965,19.4579567 283.666754,20.732135 288.457417,20.732135 C292.006894,20.732135 294.231501,19.9957394 295.922251,18.3817801 C297.641099,16.7403206 298.767452,13.8821276 298.767452,11.3912158 C298.767452,8.33440995 297.132897,4.00342569 291.920768,2.19207571 C289.498866,1.34262345 287.159424,1.34262345 286.089878,1.34262345 L282.989965,1.34262345 L282.989965,17.1369353 Z" id="Shape"></path>
                        <path d="M325.32103,15.3543078 C325.348517,18.4679476 326.279407,20.6184673 330.900262,20.6184673 C335.491187,20.6184673 336.167976,17.5897728 336.167976,16.4292621 C336.167976,13.7122372 333.605585,12.7784508 331.124433,11.9296097 C328.787435,11.135769 328.108813,10.7697101 327.40637,10.0889261 C326.419284,9.12641723 325.744328,7.76790474 325.744328,6.18327906 C325.744328,3.23891866 327.855323,0.607450029 331.604538,0.607450029 C333.068063,0.607450029 334.111344,0.889785957 335.013525,1.11589915 C335.06911,1.11589915 335.210209,1.172733 335.237696,1.172733 L336.194852,3.72108976 L336.026265,3.74859002 C335.998778,3.69175616 335.857679,3.5505882 335.830192,3.52308794 C335.06911,2.6449132 333.772339,1.25890046 331.294241,1.25890046 C328.249913,1.25890046 326.785777,3.35319749 326.785777,5.33443793 C326.785777,8.05207402 329.152094,8.70291334 331.294241,9.38125291 C333.210995,9.97586948 337.293717,11.193214 337.293717,15.4960869 C337.293717,18.0432214 335.802705,19.883905 334.166318,20.7034125 C333.407068,21.0719159 331.096335,21.2699178 330.533159,21.2699178 L325.124956,21.2699178 L325.124956,15.3543078 L325.32103,15.3543078 Z" id="Path"></path>
                    </g>
                    <path d="M348.273822,7.38534567 C346.096248,8.45418883 343.320681,10.0889261 339.204974,11.8642202 L339.206195,11.8629979 C304.773647,23.8133856 262.163438,18.197834 241.077923,14.1363522 C236.529756,13.0888981 232.181326,12.1257781 228.016754,11.2366033 C228.002705,11.2329366 227.985602,11.2280477 227.985602,11.2280477 L227.99171,11.2311032 C207.187784,6.78522904 191.200785,4.22159436 180.425916,2.77324772 C179.090663,2.50374524 178.355846,2.35341052 178.355846,2.35341052 C174.361693,1.84801699 170.54712,1.49112482 166.829058,1.20817777 C165.02164,1.04500961 164.088918,0.987564634 164.088918,0.987564634 L164.093805,0.993064685 C133.798953,-0.933175245 112.816056,4.24420568 98.7384817,10.7367098 L98.7384817,10.7299875 C84.2608202,16.6297084 74.51274,27.354807 68.3642234,36.6572259 C65.8940663,40.1485357 64.2430192,43.2138973 63.2333333,45.3509725 C63.0537522,45.7744764 62.8680628,46.2114248 62.6823735,46.6538733 C60.5402269,51.0911919 59.5965096,54.0514413 59.5965096,54.0514413 L59.5965096,54.0514413 C56.9864747,60.3648883 54.0588133,67.5626211 51.3687609,74.2182934 L42.4935428,96.3126076 L17.788918,34.9839883 C17.217801,33.8418111 16.6472949,32.2437409 16.6472949,31.2152314 C16.6472949,29.6159389 17.5586387,29.1600458 19.1638743,29.2767691 L19.1638743,28.474984 L0.181413613,28.474984 L0.181413613,29.2767691 C3.49267016,29.2767691 5.78507853,30.4158907 9.44328098,39.5545303 L38.7192845,111.849639 L39.7472949,111.849639 L63.2058464,53.4134355 L63.7335951,52.0946456 L64.0219023,51.3759723 C64.3963351,50.5124644 64.9088133,49.4118431 65.5776614,48.1132201 L65.8506981,47.6927718 C66.2990401,46.8207082 66.7913613,45.9058665 67.3148342,44.9678023 C70,40.3972603 74.1584642,34.5610955 80.2208551,28.9913776 L83.8680628,26.0739064 C83.0562827,26.6349115 82.4014834,27.1305272 81.8700698,27.5528088 C83.5070681,26.1417403 85.2717277,24.7636721 87.1713787,23.4308265 L83.867452,26.0739064 C84.2113438,25.8349597 84.5796684,25.5868463 84.978534,25.3271217 C96.8247818,17.6246065 132.456981,1.72701588 210.581501,17.4620494 C210.581501,17.4620494 286.700087,31.0392298 321.584642,18.9513409 L321.549215,18.9556187 C326.482199,17.7834968 330.720681,16.4763181 334.328185,15.1746395 L334.444241,15.1483615 L334.493717,15.1135278 C343.827051,11.7279411 348.740489,8.39979944 349.411169,7.62123673 C350.811169,6.00361075 348.116841,7.45317963 348.273822,7.38534567 Z" id="Path" fill="#000000"></path>
                </g>
            </g>
        </g>
    </g>
</svg>