<?xml version="1.0" encoding="UTF-8"?>
<svg width="150px" height="81px" viewBox="0 0 150 81" version="1.1" xmlns="http://www.w3.org/2000/svg" xmlns:xlink="http://www.w3.org/1999/xlink">
    <title>Group</title>
    <g id="Latest" stroke="none" stroke-width="1" fill="none" fill-rule="evenodd" opacity="0.9">
        <g id="Tours-Copy-6" transform="translate(-641.000000, -3267.000000)">
            <g id="Group-7" transform="translate(519.000000, 3267.000000)">
                <g id="Group" transform="translate(122.597884, 0.000000)">
                    <path d="M29.8767952,20 L36.0582011,20 L36.0582011,20.2339733 C35.7365937,20.2000383 34.3199959,20.1666135 34.3199959,21.5018179 C34.286531,21.7018562 34.286531,22.5696243 34.286531,22.7362378 L34.286531,41.1624673 C34.286531,43.0648721 34.286531,43.8002169 36.0582011,43.7660267 L36.0582011,44 L29.8767952,44 L29.8767952,43.7660267 C31.5507773,43.6999426 31.6162306,43.2654207 31.6162306,41.1958921 L31.6162306,22.9362761 C31.6162306,21.16706 31.6162306,20.1334439 29.8767952,20.2339733 L29.8767952,20 Z" id="Path" fill="#FFFFFF" fill-rule="nonzero"></path>
                    <path d="M39.148904,42.5368239 C40.6737509,42.4713779 40.8723686,42.1072553 40.8723686,40.2896746 L40.8723686,21.3798103 C40.8723686,19.3967193 40.2765155,19.2640584 39.148904,19.2317144 L39.148904,19 L45.9100126,19 C48.4950828,19 49.6214276,19 50.9810975,19.4290633 C53.0035019,20.058255 54.4277732,21.6446267 54.4277732,24.2558987 C54.4277732,27.0324282 52.4053688,29.313185 50.2530015,30.4709989 L52.0742548,33.2811358 C52.4053688,33.875204 55.2232574,37.9745523 57.0789649,40.0903042 C57.5780425,40.6863938 59.1013693,42.0071911 61.0234516,42.0071911 C61.8850572,42.0071911 62.2835593,41.8421862 62.6476073,41.6769286 C63.1783523,41.4464776 63.5753343,41.1811558 63.7752187,41.0828604 L63.8745276,41.4128702 C63.1783523,41.941745 62.7137287,42.2058034 62.0507408,42.4711252 C61.4538744,42.7023342 60.2279674,43 58.8356168,43 C57.5780425,43 55.8203772,42.7023342 54.1632874,40.6863938 C52.3737014,38.5034271 50.1856133,35.2647322 50.1182252,35.1649207 C50.1182252,35.0994746 50.0531171,35.0330178 50.0531171,34.9999158 L47.6666646,31.3303888 L46.7718716,31.3639963 C46.5732539,31.3963402 45.7103816,31.3963402 45.5449513,31.3963402 L43.6241357,31.3963402 L43.6241357,40.4875288 C43.6241357,42.3715663 44.1868014,42.5042273 45.3144129,42.5365712 L45.3144129,42.7682856 L39.148904,42.7682856 L39.148904,42.5368239 L39.148904,42.5368239 Z M43.6241357,19.6607776 L43.6241357,30.7350572 L46.1086303,30.7350572 C46.971756,30.7350572 48.6949672,30.5364449 49.4891847,30.1073816 C50.6499835,29.4781899 51.9088245,28.0575811 51.9088245,25.743975 C51.9088245,24.2558987 51.3793462,22.4375599 50.0863045,21.1157519 C49.12539,20.156045 47.8662957,19.6607776 45.579152,19.6607776 L43.6241357,19.6607776 L43.6241357,19.6607776 Z" id="Shape" fill="#FFFFFF" fill-rule="nonzero"></path>
                    <path d="M82.4187453,42.7695546 L82.4187453,43 L72.3336958,43 C70.4904322,43 67.4307317,43 64.1961151,41.0936106 C60.3017091,38.7924232 57.6931217,34.9783879 57.6931217,30.9675818 C57.6931217,25.6736194 62.7696726,19 71.8474932,19 C74.56002,19 77.0644022,19.558648 79.638166,20.5452661 L80.681282,23.2731671 L80.4367186,23.2731671 C78.6992553,21.2019225 75.4991966,19.6242382 71.8129353,19.6242382 C64.7184706,19.6242382 60.8224696,25.476346 60.8224696,31.6244895 C60.8224696,37.3117422 64.1267336,39.941886 65.8657919,40.8629139 C68.5783188,42.3091663 72.4033432,42.3762644 72.9602565,42.3762644 L74.3170516,42.3420871 C77.1337838,42.2762455 77.725255,42.1779858 77.725255,40.303512 L77.725255,36.7201734 C77.725255,35.2070742 76.958602,34.9778853 75.9516388,35.0105548 L75.9516388,34.7801093 L82.4184794,34.7801093 L82.4184794,35.0105548 C80.715574,35.0427216 80.6100396,35.7669787 80.6100396,36.9493623 L80.6100396,40.6658918 C80.6100396,42.1121442 80.9239845,42.7693033 82.0710399,42.7693033 L82.4187453,42.7693033 L82.4187453,42.7695546 Z" id="Path" fill="#FFFFFF" fill-rule="nonzero"></path>
                    <path d="M84.4792139,20 L90.6606198,20 L90.6606198,20.2339733 C90.3392585,20.2000383 88.9226607,20.1666135 88.9226607,21.5018179 C88.8904262,21.7018562 88.8904262,22.5696243 88.8904262,22.7362378 L88.8904262,41.1624673 C88.8904262,43.0648721 88.8904262,43.8002169 90.6606198,43.7660267 L90.6606198,44 L84.4792139,44 L84.4792139,43.7660267 C86.1546724,43.6999426 86.217419,43.2654207 86.217419,41.1958921 L86.217419,22.9362761 C86.217419,21.16706 86.217419,20.1334439 84.4792139,20.2339733 L84.4792139,20 L84.4792139,20 Z" id="Path" fill="#FFFFFF" fill-rule="nonzero"></path>
                    <path d="M112.742827,20 L117.446712,20 L117.446712,20.2310818 C116.093728,20.2633375 115.551499,20.5926984 115.551499,22.4063251 L115.551499,44 L96.1244007,23.8573274 L96.1244007,41.3963607 C96.1244007,43.2752549 96.5649614,43.3410263 97.8856088,43.472569 L97.8856088,43.7036508 L93.2140611,43.7036508 L93.2140611,43.472569 C95.0766784,43.4073016 95.0766784,42.8793666 95.0766784,40.9677128 L95.0766784,24.9124413 C95.0766784,23.2968847 95.0766784,20.0982791 91.6908541,20.2310818 L91.6908541,20 L96.2594404,20 L114.502742,38.9227522 L114.502742,22.1749913 C114.502742,20.4276399 113.791584,20.2308298 112.742827,20.2308298 L112.742827,20 Z" id="Path" fill="#FFFFFF" fill-rule="nonzero"></path>
                    <path d="M119.507181,20 L125.688587,20 L125.688587,20.2339733 C125.366979,20.2000383 123.950381,20.1666135 123.950381,21.5018179 C123.918393,21.7018562 123.918393,22.5696243 123.918393,22.7362378 L123.918393,41.1624673 C123.918393,43.0648721 123.918393,43.8002169 125.688587,43.7660267 L125.688587,44 L119.507181,44 L119.507181,43.7660267 C121.182393,43.6999426 121.246616,43.2654207 121.246616,41.1958921 L121.246616,22.9362761 C121.246616,21.16706 121.246616,20.1334439 119.507181,20.2339733 L119.507181,20 Z" id="Path" fill="#FFFFFF" fill-rule="nonzero"></path>
                    <path d="M140.123214,32.1176612 L132.784221,32.1176612 L128.975146,41.0604588 C128.904088,41.2245584 128.799371,41.4550014 128.799371,41.4876705 C128.625199,41.8492927 128.590205,42.0136436 128.590205,42.2428301 C128.590205,42.80298 129.149852,42.7693057 129.429008,42.7693057 L129.429008,42.9997487 L125.688587,42.9997487 L125.688587,42.7693057 C127.191754,42.7371391 127.576695,41.7832005 128.065285,40.6337497 L137.186602,19 L137.606538,19 L146.588143,39.9097515 C146.588143,39.9419181 146.623138,40.0738511 146.694196,40.1723611 L146.832304,40.5347371 C147.182785,41.4215784 147.812155,42.769557 149.383976,42.769557 L149.383976,43 L143.513155,43 L143.513155,42.769557 C144.282236,42.769557 144.315895,42.2430814 144.315895,42.1779944 C144.315895,41.849544 144.106461,41.2903993 143.932022,40.8958567 C143.862033,40.7646775 143.792311,40.5676576 143.756247,40.5347371 L140.123214,32.1176612 Z M133.028916,31.4602578 L139.809331,31.4602578 L136.417788,23.4050553 L133.028916,31.4602578 Z" id="Shape" fill="#FFFFFF" fill-rule="nonzero"></path>
                    <path d="M22.8346075,49.0002471 L25.8775887,49.0002471 L25.8775887,49.1759231 C24.5851854,49.2255868 24.3433415,49.9517639 24.3433415,50.6774468 C24.3433415,50.9032807 24.3967598,51.3035553 24.423336,51.528895 L26.4423341,65.1723267 C26.6586648,66.5740288 26.9536613,66.7497049 27.8163265,66.8248181 L27.8163265,67 L23.4541,67 L23.4541,66.8248181 C24.2085999,66.8497735 24.3154364,66.399094 24.3154364,66.0482361 C24.3154364,65.9234592 24.3154364,65.8483459 24.2354419,65.3225532 L22.269862,52.1048456 L22.2164438,52.1048456 L15.3225631,66.9997529 L15.1878215,66.9997529 L8.26709886,52.1048456 L8.21368059,52.1048456 L6.24810074,65.4223747 C6.19335366,65.6477145 6.19335366,65.8980096 6.19335366,66.1238435 C6.19335366,66.3741386 6.19335366,66.824571 7.08259516,66.824571 L7.08259516,66.9997529 L4.12093726,66.9997529 L4.12093726,66.824571 C4.9822737,66.7996156 5.22385186,66.7749073 5.44018258,65.4223747 L7.64734059,50.8775841 L7.35074958,50.2761839 C6.78600415,49.1255182 5.81676812,49.175676 5.52017711,49.175676 L5.52017711,49 L9.18265086,49 L15.9949424,63.7204667 L22.8346075,49.0002471 Z" id="Path" fill="#FFFFFF" fill-rule="nonzero"></path>
                    <path d="M37.7553482,68 C32.3057442,68 28.8465608,64.0253333 28.8465608,59.4868339 C28.8465608,54.8714021 32.2522077,49 39.4069628,49 C44.8839817,49 48.4210128,52.71831 48.4210128,57.2560503 C48.4207542,62.9232275 44.59535,68 37.7553482,68 Z M37.6513788,49.9745601 C34.1911608,49.9745601 30.2876502,52.7947362 30.2876502,57.1793711 C30.2876502,62.3330758 34.6122114,67.0254399 39.3275633,67.0254399 C43.3634927,67.0254399 47.2424335,63.7178572 47.2424335,59.5128997 C47.2421749,53.5384994 41.3715204,49.9745601 37.6513788,49.9745601 Z" id="Shape" fill="#FFFFFF" fill-rule="nonzero"></path>
                    <path d="M63.4041418,64.1158187 C60.7869405,66.900867 58.0645757,67 56.9119116,67 C53.7701848,67 50.8374931,65.4092099 50.8374931,61.3808277 L50.8374931,50.665876 C50.8374931,49.44708 50.7064909,49.1494356 49.4512472,49.1747096 L49.4512472,49.0002454 L54.4505176,49.0002454 L54.4505176,49.1747096 C53.7185074,49.1747096 53.011044,49.1747096 53.011044,50.5412236 L53.011044,60.36177 C53.011044,61.1570424 53.0640133,62.27646 53.4562447,63.1961394 C54.4246789,65.4590218 56.5199386,66.0550466 57.9855093,66.0550466 C61.0492032,66.0550466 62.7772951,64.1651399 63.4044002,63.4697366 L63.4044002,51.3615246 C63.4044002,49.7204319 63.2731396,49.1744643 62.2008338,49.1744643 L62.0178959,49.1744643 L62.0178959,49 L66.9652305,49 L66.9652305,49.1744643 C66.1797342,49.1985114 65.5774343,49.1985114 65.5774343,50.391788 L65.5774343,64.960903 C65.5774343,66.0803206 65.5774343,66.7261574 66.9652305,66.7016195 L66.9652305,66.875593 L63.4044002,66.875593 L63.4044002,64.1158187 L63.4041418,64.1158187 Z" id="Path" fill="#FFFFFF" fill-rule="nonzero"></path>
                    <path d="M85.8670981,49 L89.6303855,49 L89.6303855,49.1735087 C88.5481364,49.1974241 88.1144351,49.4443872 88.1144351,50.8048807 L88.1144351,67 L72.5728039,51.8930315 L72.5728039,65.0469902 C72.5728039,66.4555586 72.9260714,66.5060738 73.9823999,66.6046638 L73.9823999,66.7776844 L70.2450331,66.7776844 L70.2450331,66.6046638 C71.7337269,66.5556128 71.7337269,66.1597885 71.7337269,64.7258406 L71.7337269,52.684436 C71.7337269,51.4723156 71.7337269,49.0736985 69.0256992,49.1735087 L69.0256992,49 L72.6815633,49 L87.2753581,63.1923265 L87.2753581,50.631372 C87.2753581,49.3213937 86.7061752,49.1735087 85.8668309,49.1735087 L85.8668309,49 L85.8670981,49 Z" id="Path" fill="#FFFFFF" fill-rule="nonzero"></path>
                    <path d="M107.144369,49.0002521 L106.21882,51.2213422 L106.027095,51.2213422 C106.109647,50.9660127 106.082489,50.8382218 106.082489,50.6849737 C106.082489,50.2000239 105.536625,50.2504345 105.155864,50.2504345 L100.034154,50.2504345 L100.034154,65.9571112 C100.034154,67.4119606 100.169141,67.8464998 101.586236,67.8212945 L101.586236,68 L96.2741456,68 L96.2741456,67.8212945 C97.4995162,67.7194651 97.7721793,67.5914222 97.7721793,66.2124408 L97.7721793,50.2504345 L92.8682768,50.2504345 C91.9967766,50.2504345 91.669796,50.2252292 91.669796,50.7109351 C91.669796,50.8382218 91.6969548,50.9400512 91.7778932,51.2210902 L91.5875131,51.2210902 L90.6606198,49 L90.8512689,49 C91.0158348,49.3057402 91.1782495,49.4849498 91.3699741,49.5610698 C91.5877819,49.63845 91.8876038,49.63845 92.3224127,49.63845 L105.346244,49.63845 C106.136537,49.63845 106.682401,49.6891126 106.953989,49.0002521 L107.144369,49.0002521 Z" id="Path" fill="#FFFFFF" fill-rule="nonzero"></path>
                    <path d="M114.721513,58.8383808 L109.296566,58.8383808 L106.480958,65.5456709 C106.42971,65.6685685 106.351689,65.8415986 106.351689,65.8659348 C106.223441,66.137283 106.196669,66.2609107 106.196669,66.4324807 C106.196669,66.8520361 106.610482,66.8274566 106.81675,66.8274566 L106.81675,67 L104.053666,67 L104.053666,66.8274566 C105.16303,66.8028771 105.448849,66.0878806 105.809883,65.2251636 L112.551738,49 L112.861779,49 L119.501391,64.6822238 C119.501391,64.7068033 119.527143,64.8056081 119.579666,64.8791033 L119.681908,65.1504516 C119.940701,65.8160456 120.405762,66.8274566 121.567649,66.8274566 L121.567649,67 L117.227845,67 L117.227845,66.8274566 C117.796423,66.8274566 117.822174,66.4324807 117.822174,66.3838083 C117.822174,66.137283 117.667154,65.7179709 117.53916,65.4220432 C117.486637,65.3237251 117.435388,65.1757612 117.409637,65.1506949 L114.721513,58.8383808 Z M109.477338,58.3450868 L114.489747,58.3450868 L111.98418,52.3046076 L109.477338,58.3450868 Z" id="Shape" fill="#FFFFFF" fill-rule="nonzero"></path>
                    <path d="M121.567914,49 L126.718821,49 L126.718821,49.1756785 C126.450076,49.1502286 125.269979,49.1255199 125.269979,50.1259729 C125.243237,50.2762015 125.243237,50.9272742 125.243237,51.0527941 L125.243237,64.8720916 C125.243237,66.2990158 125.243237,66.8497714 126.718556,66.8248157 L126.718556,67 L121.567649,67 L121.567649,66.8248157 C122.963271,66.7751513 123.016491,66.4492443 123.016491,64.8975415 L123.016491,51.2027756 C123.016491,49.8759214 123.016491,49.0998229 121.567649,49.1756785 L121.567649,49 L121.567914,49 Z" id="Path" fill="#FFFFFF" fill-rule="nonzero"></path>
                    <path d="M144.590624,49 L148.353741,49 L148.353741,49.1735087 C147.270128,49.1974241 146.838019,49.4443872 146.838019,50.8048807 L146.838019,67 L131.295985,51.8930315 L131.295985,65.0469902 C131.295985,66.4555586 131.647658,66.5060738 132.704548,66.6046638 L132.704548,66.7776844 L128.968154,66.7776844 L128.968154,66.6046638 C130.456886,66.5556128 130.456886,66.1597885 130.456886,64.7258406 L130.456886,52.684436 C130.456886,51.4723156 130.456886,49.0736985 127.749055,49.1735087 L127.749055,49 L131.405014,49 L145.99892,63.1923265 L145.99892,50.631372 C145.99892,49.3213937 145.429723,49.1735087 144.590624,49.1735087 L144.590624,49 Z" id="Path" fill="#FFFFFF" fill-rule="nonzero"></path>
                    <path d="M17.5139834,40 L21.6349206,31 C19.3935051,35.8626985 17.5139834,40 17.5139834,40 Z" id="Path"></path>
                    <polygon id="Path" fill="#FFFFFF" fill-rule="nonzero" points="25.7558579 21.0002 25.7558579 20.9998"></polygon>
                    <g transform="translate(4.120937, 72.000000)" fill="#FFFFFF" fill-rule="nonzero">
                        <path d="M4.17176942,9 L4.06354757,9 L0.977133535,1.31171329 C0.5910377,0.33986014 0.350021884,0.218181818 0,0.218181818 L0,0.133216783 L2.00158145,0.133216783 L2.00158145,0.218181818 C1.83271354,0.206118881 1.73625493,0.255157343 1.73625493,0.424825175 C1.73625493,0.534178322 1.79663959,0.704108392 1.85702425,0.825262238 L4.46140665,7.34763986 L7.05350299,0.83784965 C7.05350299,0.825262238 7.06605045,0.801660839 7.0778137,0.777272727 C7.1021244,0.704370629 7.18629695,0.498251748 7.18629695,0.400437063 C7.18629695,0.351660839 7.16198625,0.194318182 6.87313324,0.218181818 L6.87313324,0.133216783 L8.17519373,0.133216783 L8.17519373,0.218181818 C7.72923605,0.218181818 7.60846674,0.473863636 7.46338672,0.764947552 L7.41528812,0.84965035 L4.17176942,9 Z" id="Path"></path>
                        <path d="M18.2858333,0.133216783 L20.6005785,0.133216783 L20.6005785,0.218181818 C20.4798092,0.206118881 19.9491562,0.194318182 19.9491562,0.679982517 C19.9373929,0.752884615 19.9373929,1.06835664 19.9373929,1.1291958 L19.9373929,7.83409091 C19.9373929,8.5263986 19.9373929,8.79309441 20.6005785,8.78129371 L20.6005785,8.86625874 L18.2858333,8.86625874 L18.2858333,8.78129371 C18.912945,8.75690559 18.9359487,8.59877622 18.9359487,7.84589161 L18.9359487,1.20236014 C18.9359487,0.558566434 18.9359487,0.181730769 18.2858333,0.218181818 L18.2858333,0.133216783 L18.2858333,0.133216783 Z" id="Path"></path>
                        <path d="M38.2349895,0.133216783 L39.9113826,0.133216783 L39.9113826,0.218181818 C39.429351,0.230506993 39.2356495,0.351923077 39.2356495,1.01984266 L39.2356495,8.97587413 L32.3149405,1.55480769 L32.3149405,8.01608392 C32.3149405,8.70839161 32.4720452,8.73277972 32.9420522,8.78155594 L32.9420522,8.86652098 L31.2787293,8.86652098 L31.2787293,8.78155594 C31.9419149,8.75716783 31.9419149,8.56284965 31.9419149,7.85847902 L31.9419149,1.94344406 C31.9419149,1.3479021 31.9419149,0.16993007 30.7355288,0.218181818 L30.7355288,0.133216783 L32.3633005,0.133216783 L38.8623626,7.10559441 L38.8623626,0.934877622 C38.8623626,0.291346154 38.6087993,0.218444056 38.2347281,0.218444056 L38.2347281,0.133216783 L38.2349895,0.133216783 Z" id="Path"></path>
                        <path d="M51.0462087,1.10480769 C51.0462087,0.461276224 51.0224208,0.230506993 50.4313831,0.230506993 L50.4313831,0.133216783 L55.8811637,0.133216783 L55.8811637,1.3361014 L55.7972526,1.3361014 C55.5436893,0.424825175 55.5436893,0.424825175 54.9040302,0.424825175 L52.0473916,0.424825175 L52.0473916,4.3479021 L54.6996112,4.3479021 C55.0365628,4.3479021 55.2783628,4.3479021 55.3144368,4.05681818 L55.3983479,4.05681818 L55.3983479,4.88208042 L55.3144368,4.88208042 C55.2543135,4.5909965 55.0491102,4.5909965 54.7720205,4.5909965 L52.0473916,4.5909965 L52.0473916,7.28732517 C52.0473916,8.5263986 52.3608167,8.57517483 53.2524706,8.57517483 L54.7837837,8.57517483 C55.8325423,8.57517483 56.1582535,8.57517483 56.2790228,7.6638986 L56.362934,7.6638986 L56.362934,8.86625874 L50.4313831,8.86625874 L50.4313831,8.78129371 C50.7688576,8.75690559 51.0462087,8.74484266 51.0462087,8.16215035 L51.0462087,1.10480769 L51.0462087,1.10480769 Z" id="Path"></path>
                        <path d="M71.6716208,0.133216783 L72.9731584,0.133216783 L72.9731584,0.218181818 C72.6599947,0.230506993 72.4673389,0.33986014 72.201751,0.752884615 L70.079923,3.98339161 L70.079923,7.99143357 C70.079923,8.66013986 70.1884063,8.76870629 70.7431086,8.78129371 L70.7431086,8.86625874 L68.4278407,8.86625874 L68.4278407,8.78129371 C68.6570932,8.79309441 69.0910263,8.80568182 69.0910263,8.19807692 L69.079263,8.00402098 L69.079263,4.31145105 L66.9574351,0.764947552 C66.8730011,0.619143357 66.6319853,0.206118881 66.2098155,0.218181818 L66.2098155,0.133216783 L68.2592341,0.133216783 L68.2592341,0.218181818 C68.1627755,0.218181818 67.9703811,0.230506993 67.9703811,0.436888112 C67.9703811,0.534178322 68.1023909,0.752884615 68.1149383,0.789335664 L69.8632179,3.69230769 L71.8049375,0.740297203 C71.8404887,0.679982517 71.9615194,0.521590909 71.9615194,0.413024476 C71.9615194,0.218181818 71.7683408,0.218181818 71.7079561,0.218181818 L71.672405,0.218181818 L71.672405,0.133216783 L71.6716208,0.133216783 Z" id="Path"></path>
                        <path d="M86.8224187,4.84615385 L84.2901842,4.84615385 L82.976099,8.14982517 C82.9517883,8.2104021 82.9159758,8.29562937 82.9159758,8.30795455 C82.8555911,8.44195804 82.8430436,8.50227273 82.8430436,8.58723776 C82.8430436,8.79335664 83.0367451,8.78155594 83.1332037,8.78155594 L83.1332037,8.86652098 L81.842645,8.86652098 L81.842645,8.78155594 C82.3607506,8.76896853 82.4940674,8.41704545 82.6629353,7.9916958 L85.809734,0 L85.9542912,0 L89.0529913,7.72473776 C89.0529913,7.73653846 89.0647545,7.78531469 89.0893266,7.8215035 L89.1371638,7.95524476 C89.2581946,8.2833042 89.4748997,8.78129371 90.0178388,8.78129371 L90.0178388,8.86625874 L87.9919466,8.86625874 L87.9919466,8.78129371 C88.2572731,8.78129371 88.2692978,8.58697552 88.2692978,8.56258741 C88.2692978,8.44143357 88.1971499,8.23452797 88.137288,8.08872378 C88.1127159,8.03994755 88.0884052,7.96756993 88.0761192,7.95498252 L86.8224187,4.84615385 Z M84.3748795,4.6027972 L86.7139354,4.6027972 L85.5436233,1.62718531 L84.3748795,4.6027972 Z" id="Shape"></path>
                        <path d="M100.18834,8.78129371 C100.74252,8.75690559 100.815452,8.62316434 100.815452,7.95524476 L100.815452,1.00804196 C100.815452,0.279545455 100.597963,0.230506993 100.18834,0.218181818 L100.18834,0.133216783 L102.647643,0.133216783 C103.587918,0.133216783 103.998325,0.133216783 104.492904,0.291346154 C105.228237,0.521853147 105.747127,1.10506993 105.747127,2.06486014 C105.747127,3.08548951 105.011271,3.92333916 104.227838,4.34816434 L104.891024,5.38059441 C105.011271,5.5993007 106.036241,7.10585664 106.711452,7.88312937 C106.891821,8.10131119 107.446785,8.5875 108.146045,8.5875 C108.459208,8.5875 108.603766,8.52692308 108.737082,8.46634615 C108.929477,8.38059441 109.074034,8.28382867 109.146705,8.24763986 L109.18304,8.36879371 C108.929477,8.56311189 108.76087,8.66066434 108.519854,8.75743007 C108.302365,8.8423951 107.856669,8.95174825 107.350065,8.95174825 C106.891821,8.95174825 106.252946,8.8423951 105.650145,8.10131119 C104.999246,7.30017483 104.203528,6.10961538 104.17974,6.0729021 C104.17974,6.04851399 104.155429,6.02491259 104.155429,6.01258741 L103.286779,4.66468531 L102.961591,4.67648601 C102.889443,4.68907343 102.576018,4.68907343 102.51511,4.68907343 L101.816373,4.68907343 L101.816373,8.02893357 C101.816373,8.72124126 102.021315,8.76923077 102.431199,8.78181818 L102.431199,8.86678322 L100.188602,8.86678322 L100.188602,8.78129371 L100.18834,8.78129371 Z M101.816373,0.376311189 L101.816373,4.44571678 L102.720575,4.44571678 C103.033738,4.44571678 103.661111,4.37255245 103.950487,4.21442308 C104.372134,3.98365385 104.829855,3.46127622 104.829855,2.61162587 C104.829855,2.06486014 104.637984,1.39694056 104.167192,0.910751748 C103.817955,0.558828671 103.35945,0.376573427 102.527658,0.376573427 L101.816373,0.376573427 L101.816373,0.376311189 Z" id="Shape"></path>
                        <path d="M119.992416,1.22674825 C119.992416,0.424825175 119.968628,0.230506993 119.366089,0.218181818 L119.366089,0.133216783 L123.344418,0.133216783 C125.623612,0.133216783 126.455666,0.558566434 127.021609,0.934877622 C127.974431,1.56660839 128.697479,2.70839161 128.697479,4.23881119 C128.697479,6.12167832 127.552785,7.67622378 126.370971,8.35673077 C125.683997,8.75716783 124.827633,8.86652098 123.4414,8.86652098 L119.366089,8.86652098 L119.366089,8.78155594 L119.474311,8.78155594 C119.860668,8.78155594 119.992416,8.55104895 119.992416,7.59125874 L119.992416,1.22674825 Z M120.993076,7.09300699 C120.993076,8.08898601 121.282714,8.63575175 123.332916,8.63575175 C124.851943,8.63575175 125.803982,8.31975524 126.527552,7.62718531 C127.263147,6.92281469 127.745179,5.69632867 127.745179,4.62744755 C127.745179,3.31573427 127.045658,1.45725524 124.815085,0.679982517 C123.778613,0.315472028 122.77743,0.315472028 122.319709,0.315472028 L120.993076,0.315472028 L120.993076,7.09300699 Z" id="Shape"></path>
                        <path d="M139.108996,6.32805944 C139.120759,7.66416084 139.519141,8.58697552 141.496673,8.58697552 C143.461397,8.58697552 143.751034,7.28732517 143.751034,6.78933566 C143.751034,5.62342657 142.654438,5.22272727 141.592609,4.85847902 C140.592472,4.51783217 140.302051,4.36075175 140.001434,4.06861888 C139.579003,3.65559441 139.29015,3.07263986 139.29015,2.39265734 C139.29015,1.1291958 140.193567,0 141.798074,0 C142.424401,0 142.870882,0.121153846 143.256978,0.218181818 C143.280766,0.218181818 143.34115,0.24256993 143.352914,0.24256993 L143.762536,1.3361014 L143.690388,1.3479021 C143.678625,1.32351399 143.61824,1.26293706 143.606477,1.25113636 C143.280766,0.874300699 142.725802,0.279545455 141.66528,0.279545455 C140.362435,0.279545455 139.735846,1.17823427 139.735846,2.02840909 C139.735846,3.19458042 140.748531,3.47386364 141.66528,3.76494755 C142.48557,4.0201049 144.232804,4.54248252 144.232804,6.3888986 C144.232804,7.48190559 143.594714,8.27176573 142.894408,8.62342657 C142.569481,8.78155594 141.580585,8.86652098 141.339569,8.86652098 L139.025085,8.86652098 L139.025085,6.32805944 L139.108996,6.32805944 Z" id="Path"></path>
                    </g>
                    <path d="M148.725127,2.81124616 C147.794742,3.25313881 146.60886,3.9289895 144.850393,4.66295071 L144.850914,4.6624454 C130.139347,9.60310342 111.933811,7.28146156 102.924864,5.60232 C100.981625,5.16927026 99.1237258,4.77108682 97.3443806,4.40347458 C97.3383781,4.40195865 97.3310707,4.39993742 97.3310707,4.39993742 L97.3336805,4.40120069 C88.4450447,2.56313947 81.6144782,1.503254 77.0108335,0.904462927 C76.4403365,0.793042309 76.1263805,0.730889311 76.1263805,0.730889311 C74.419848,0.52194407 72.7900429,0.374393864 71.2014723,0.257414848 C70.4292396,0.189956106 70.0307269,0.166206587 70.0307269,0.166206587 L70.0328147,0.168480477 C57.0891091,-0.627886389 48.1240069,1.51260222 42.1092563,4.19680323 L42.1092563,4.19402403 C35.9235655,6.63315021 31.7586241,11.067236 29.1316236,14.9131423 C28.0762303,16.3565572 27.3708078,17.623872 26.9394119,18.5074046 C26.8626845,18.6824942 26.7833473,18.8631421 26.7040101,19.046064 C25.7887617,20.880588 25.3855513,22.1044462 25.3855513,22.1044462 L25.3855513,22.1044462 C24.270394,24.7146195 23.0195284,27.6903837 21.8701831,30.4420435 L18.0781787,39.5765129 L7.52294005,14.2213743 C7.278926,13.7491632 7.03517293,13.0884717 7.03517293,12.6632543 C7.03517293,12.0020575 7.4245515,11.8135773 8.11040061,11.8618343 L8.11040061,11.5303517 L0,11.5303517 L0,11.8618343 C1.41475952,11.8618343 2.39420842,12.3327822 3.95720322,16.1109771 L16.4655982,46 L16.9048235,46 L26.9276679,21.840675 L27.1531525,21.2954466 L27.2763339,20.998325 C27.4363132,20.6413242 27.6552734,20.1862936 27.9410439,19.6494028 L28.0577008,19.4755765 C28.2492584,19.1150386 28.4596063,18.7368149 28.6832641,18.3489903 C29.8305216,16.4593876 31.6072571,14.0465375 34.1974597,11.7438447 L35.7557569,10.5376723 C35.4089176,10.7696091 35.1291497,10.9745118 34.9020992,11.1490961 C35.6015191,10.5657169 36.3554834,9.99598111 37.1671237,9.44494173 L35.7554959,10.5376723 C35.9024263,10.4388844 36.0597958,10.3363067 36.2302141,10.2289285 C41.2916135,7.04447168 56.5157413,0.471918486 89.8950362,6.97726559 C89.8950362,6.97726559 122.417281,12.5904898 137.321972,7.59298452 L137.306835,7.5947531 C139.41449,7.11016184 141.225414,6.56973394 142.766747,6.03157994 L142.816333,6.0207158 L142.837472,6.00631449 C146.82521,4.60660877 148.924514,3.23065256 149.211067,2.90877078 C149.809228,2.23999442 148.658056,2.8392908 148.725127,2.81124616 Z" id="Path" fill="#FFFFFF" fill-rule="nonzero"></path>
                </g>
            </g>
        </g>
    </g>
</svg>