<?xml version="1.0" encoding="UTF-8"?>
<svg width="68px" height="68px" viewBox="0 0 68 68" version="1.1" xmlns="http://www.w3.org/2000/svg" xmlns:xlink="http://www.w3.org/1999/xlink">
    <title>Monogram</title>
    <defs>
        <polygon id="path-1" points="0 0.136207457 67.8639724 0.136207457 67.8639724 67.965587 0 67.965587"></polygon>
    </defs>
    <g id="Latest" stroke="none" stroke-width="1" fill="none" fill-rule="evenodd">
        <g id="Home-1" transform="translate(-22.000000, -18.000000)">
            <g id="Feature/Top-Nav" transform="translate(0.000000, 18.000000)">
                <g id="Monogram" transform="translate(22.000000, 0.000000)">
                    <path d="M39.3536998,13.6145895 C39.6923077,13.9551616 39.905241,14.4369135 39.905241,14.9725257 C39.905241,16.004035 39.1212842,16.8402321 38.1543035,16.8402321 C37.1870484,16.8402321 36.4030916,16.004035 36.4030916,14.9725257 C36.4030916,14.3253842 36.71179,13.7554971 37.1807372,13.4203654 C35.2015,12.048012 34.5001372,9 34.5001372,9 C34.5001372,9 33.7990488,12.048012 31.8195372,13.4203654 C32.2884844,13.7554971 32.5971828,14.3253842 32.5971828,14.9725257 C32.5971828,16.004035 31.8135004,16.8402321 30.8462453,16.8402321 C29.8789902,16.8402321 29.0950334,16.004035 29.0950334,14.9725257 C29.0950334,14.4369135 29.3076923,13.9551616 29.6465746,13.6145895 C29.006677,13.2522555 28.0918321,12.5194269 27,11.032008 L28.4268728,17.9696695 L34.5001372,21 L40.5734016,17.9696695 L42,11.032008 C40.9089911,12.5191549 39.9938718,13.2522555 39.3536998,13.6145895" id="Fill-1" fill="#000000"></path>
                    <path d="M14.2272638,49.3912669 C13.8637791,52.4849181 13.4546748,52.5420856 12,52.5989658 L12,53 L17,53 L17,52.5989658 C15.4999509,52.5989658 15.4999509,51.5682275 15.4999509,50.9951163 C15.4999509,50.4797472 15.4999509,49.906636 15.5909448,49.3912669 L16.6975866,39.2257972 L15.7268223,36 L14.2272638,49.3912669 Z" id="Fill-3" fill="#000000"></path>
                    <path d="M39.2235472,32.7011927 L33.8175411,45.7120039 L28.7410006,33.4469554 L27.265769,29.8827509 L26.6718072,28.4478622 L25.5500075,25.7373928 L20.2779822,13 L13,13 L13,13.3892028 C13.5884756,13.3892028 15.5150258,13.2781614 16.6391355,15.8371347 L17.2276111,17.172142 L15.8987765,26.9602427 L17.0136462,30.0328521 L18.351432,19.8982353 L18.4585588,19.8982353 L22.8340107,30.4287508 L24.5021282,34.4440957 L25.0978226,35.8778685 L26.1832396,38.4904094 L32.2117939,53 L32.4797553,53 L40,34.8288345 L39.2235472,32.7011927 Z" id="Fill-5" fill="#000000"></path>
                    <path d="M25.4076475,35.0621434 L22.446172,43.4113348 L22.4389972,43.3909661 L22.0928843,42.4183601 L18.3657128,31.9403555 L18.1013928,31.1971804 L16.9890099,28.0694516 L16.7269857,27.3330662 L14.5963535,21.3429676 C14.4146873,20.9319157 14.233021,20.3564996 14.233021,19.986468 C14.233021,19.4113348 14.5237444,19.2466877 15.0325821,19.2879909 L15.0325821,19 L9,19 L9,19.2879909 C10.0538364,19.2879909 10.7807884,19.69876 11.943395,22.9866095 L15.8513717,33.9132915 L16.1136828,34.646848 L17.2455812,37.8119195 L17.5104752,38.5522655 L18.892918,42.4177943 L21.2471174,49 L21.5740019,49 L22.4392842,46.5597152 L26,36.5159602 L25.4076475,35.0621434 Z" id="Fill-7" fill="#000000"></path>
                    <path d="M55.1572718,23.0362184 C55.5323273,22.0968193 55.844257,21.274407 57,21.274407 L57,21 L53.6274597,21 L53.6274597,21.274407 C54.3768309,21.1959665 54.4392168,21.7051559 54.4392168,21.8614977 C54.4392168,22.1747206 54.2207427,22.840791 54.1581102,23.0755734 C54.1272871,23.1540139 54.0959708,23.2324544 54.0959708,23.2715399 L52,29.8238826 L52.2547221,32 L55.0324999,23.3106254 L55.1572718,23.0362184 Z" id="Fill-9" fill="#000000"></path>
                    <path d="M47.7294539,40.2593109 L46.6766654,43.4884921 L42.1291497,29.5786023 L41.4353551,27.4566885 L39.5613031,21.7261822 C39.5108359,21.6014786 39.4606287,21.4611522 39.414844,21.3163621 L39.4143237,21.3166411 C39.4132832,21.3130144 39.4125028,21.3093876 39.411202,21.3054819 C39.3297781,21.0457525 39.2634423,20.7729111 39.24081,20.5452643 C39.2371681,20.509834 39.2361275,20.4766355 39.2350869,20.443716 C39.212975,20.2422932 39.212975,20.0829962 39.2246813,19.9580137 C39.2538171,19.6388618 39.3583935,19.5440089 39.3583935,19.5440089 C39.3893502,19.4971405 39.4281112,19.4547357 39.474156,19.4159576 C39.5446541,19.3559771 39.6328417,19.305203 39.7366378,19.2600084 L39.6468893,19 L38.8797351,19.4156786 L36.168551,20.8867346 L35.1417766,21.4435765 L35,21.5202957 L35.0900086,21.7803041 C35.4284514,21.5970149 35.7460829,21.503278 36.1396754,21.6349561 C36.3579333,21.7337146 36.68519,22.0048821 36.9544354,22.7450133 C36.9557361,22.7491979 36.9572969,22.7531036 36.9588578,22.7570093 C36.9632802,22.7701214 36.9677026,22.7835123 36.9723851,22.7966244 C37.0324775,22.9704282 37.0941308,23.1531594 37.1568247,23.3470498 L39.8768535,31.6201702 L40.5755908,33.7454317 L45.5900586,49 L45.8863586,49 L48,42.5137397 L47.7294539,40.2593109 Z" id="Fill-11" fill="#000000"></path>
                    <path d="M54.370325,48.9383414 L52.2907947,32.6398131 L52.2473842,32.296924 L51.9599288,30.044012 L51.9165183,29.701123 L50.5023375,18.6187487 C50.4505788,18.1179466 50.347618,17.2282207 50.347618,16.7274186 C50.347618,15.1139708 50.8117765,13.5005231 53.2872885,13.3892028 L53.2872885,13 L47.4594279,13 L42,26.6338146 L42.7413179,28.7536444 L46.2734305,19.8982353 L46.3766696,19.8982353 L48.7840049,38.6823603 L48.8276937,39.0246914 L49.1165405,41.2784404 L49.1602293,41.6213294 L50.1411398,49.2725814 C50.295581,50.4410267 50.295581,50.6078678 50.295581,50.8860292 C50.295581,51.6649927 50.0896594,52.6663179 48.6454252,52.6105182 L48.6454252,53 L57,53 L57,52.6105182 C55.3501224,52.4431192 54.7830031,52.0536374 54.370325,48.9383414" id="Fill-13" fill="#000000"></path>
                    <path d="M32.9047458,22.4187897 L33,22.1524437 L31.594579,21.2735317 L31.5940967,21.2747194 L31.2371949,21.0511313 L29.5585512,20 L29.4780071,20.2773324 C29.4972991,20.2865372 29.5139385,20.2969297 29.5322658,20.3067284 C29.727356,20.4118416 29.8467252,20.5401152 29.9159352,20.6710612 C29.9511431,20.7378704 29.9740523,20.8043827 29.9875567,20.8691134 C30.002508,20.9617554 30.0032314,21.0686502 29.9950323,21.1788111 C29.9906916,21.2355247 29.9844217,21.293129 29.9764638,21.3498426 C29.9701939,21.3937882 29.9627182,21.4374369 29.9552426,21.4798979 C29.9492139,21.5087 29.942944,21.5369084 29.9364329,21.5654136 L29.9383621,21.5671952 C29.934986,21.5835263 29.9318511,21.5983728 29.928475,21.6141101 L29.5004341,23.1893224 L28,28.4731872 L28.4960451,30 L30.4373011,23.1599264 C30.643243,22.4351209 30.9106781,22.087713 31.1356709,21.922917 C31.2022282,21.8742206 31.2649272,21.8418552 31.3215974,21.8198824 C31.5834861,21.7408991 31.8810649,21.7818754 32.2452011,22.0099175 L32.2461657,22.0069482 L32.9047458,22.4187897 Z" id="Fill-15" fill="#000000"></path>
                    <g id="Group-19">
                        <mask id="mask-2" fill="white">
                            <use xlink:href="#path-1"></use>
                        </mask>
                        <g id="Clip-18"></g>
                        <path d="M33.9319724,3.61717827 C17.1423301,3.61717827 3.48289919,17.2696965 3.48289919,34.050842 C3.48289919,50.8319875 17.1423301,64.4845057 33.9319724,64.4845057 C50.7216146,64.4845057 64.3810455,50.8319875 64.3810455,34.050842 C64.3810455,17.2696965 50.7216146,3.61717827 33.9319724,3.61717827 M33.9319724,67.9656699 C15.2217447,67.9656699 -2.76422761e-05,52.7516009 -2.76422761e-05,34.050842 C-2.76422761e-05,15.3500831 15.2217447,0.136014059 33.9319724,0.136014059 C52.6422,0.136014059 67.8639724,15.3500831 67.8639724,34.050842 C67.8639724,52.7516009 52.6422,67.9656699 33.9319724,67.9656699" id="Fill-17" fill="#000000" mask="url(#mask-2)"></path>
                    </g>
                    <path d="M58,51.2872092 L58.2485104,52 C61.240566,47.1317721 63,41.2030228 63,34.8126213 C63,30.2307598 62.0948361,25.8866845 60.4803873,22 L60.0603277,22.4829591 C61.586147,26.2332787 62.4404171,30.410591 62.4404171,34.8126213 C62.4404171,40.9160882 60.8006455,46.5891533 58,51.2872092" id="Fill-20" fill="#000000"></path>
                    <path d="M50.9927453,57.0171471 L51.0067808,57 C46.2630513,60.9606754 40.3733631,63.309829 33.9995872,63.309829 C27.6351683,63.309829 21.7534611,60.9677179 17.0133093,57.0174533 L16,57.0174533 C20.9495838,61.3869035 27.2052962,64 33.9995872,64 C40.7944286,64 47.0504162,61.3865973 52,57.0171471 L50.9927453,57.0171471 Z" id="Fill-22" fill="#000000"></path>
                    <path d="M9.98171094,51.5406576 L10,51.5637817 C7.18074162,46.7111386 5.51529423,40.7479659 5.51529423,34.3077509 C5.51529423,30.1065804 6.2249097,26.1092449 7.49965708,22.4898891 L7.10918568,22 C5.75465228,25.758957 5,29.9252986 5,34.3077509 C5,40.9149736 6.71551369,47.0305943 9.61730145,52 L9.98171094,51.5406576 Z" id="Fill-24" fill="#000000"></path>
                    <path d="M33.4966872,5.53025313 C39.6209004,5.53025313 45.2995457,7.18641197 49.9492988,10 L51,10 C46.1255304,6.8631787 40.0620514,5 33.4966872,5 C26.9343598,5 20.8733653,6.8612967 16,9.99553025 L17.0515294,9.99553025 C21.6999022,7.18452997 27.3757868,5.53025313 33.4966872,5.53025313" id="Fill-26" fill="#000000"></path>
                </g>
            </g>
        </g>
    </g>
</svg>